<svg width="453" height="110" viewBox="0 0 453 110" fill="none" xmlns="http://www.w3.org/2000/svg">
<rect x="0.5" y="0.5" width="452" height="109" rx="7.5" stroke="white" stroke-opacity="0.4" stroke-dasharray="7 7"/>
<path d="M199.844 53.1691H198.415C198.36 52.8637 198.258 52.595 198.108 52.3629C197.958 52.1308 197.775 51.9338 197.558 51.7719C197.341 51.61 197.099 51.4879 196.83 51.4054C196.564 51.323 196.282 51.2817 195.982 51.2817C195.442 51.2817 194.958 51.4176 194.53 51.6895C194.106 51.9613 193.77 52.3598 193.522 52.8851C193.278 53.4104 193.156 54.0517 193.156 54.8091C193.156 55.5726 193.278 56.217 193.522 56.7423C193.77 57.2675 194.107 57.6646 194.535 57.9333C194.962 58.2021 195.443 58.3364 195.978 58.3364C196.274 58.3364 196.555 58.2967 196.821 58.2173C197.089 58.1349 197.332 58.0142 197.549 57.8554C197.766 57.6966 197.949 57.5027 198.099 57.2737C198.252 57.0415 198.357 56.7759 198.415 56.4766L199.844 56.4811C199.768 56.9423 199.62 57.3668 199.4 57.7547C199.183 58.1395 198.904 58.4723 198.561 58.7533C198.223 59.0312 197.835 59.2465 197.398 59.3992C196.961 59.5519 196.485 59.6283 195.969 59.6283C195.156 59.6283 194.433 59.4359 193.797 59.0511C193.162 58.6632 192.661 58.1089 192.295 57.3882C191.931 56.6674 191.75 55.8077 191.75 54.8091C191.75 53.8074 191.933 52.9477 192.299 52.23C192.666 51.5093 193.167 50.9565 193.802 50.5717C194.437 50.1838 195.159 49.9899 195.969 49.9899C196.466 49.9899 196.931 50.0617 197.361 50.2052C197.795 50.3457 198.184 50.5534 198.529 50.8282C198.875 51.1 199.16 51.4329 199.386 51.8269C199.612 52.2178 199.765 52.6652 199.844 53.1691ZM202.669 55.3222V59.5H201.299V50.1182H202.65V53.6089H202.737C202.902 53.2302 203.154 52.9294 203.493 52.7064C203.832 52.4835 204.275 52.372 204.822 52.372C205.304 52.372 205.726 52.4713 206.086 52.6698C206.45 52.8683 206.731 53.1645 206.929 53.5585C207.131 53.9494 207.231 54.438 207.231 55.0244V59.5H205.862V55.1893C205.862 54.6732 205.729 54.2731 205.463 53.9891C205.197 53.702 204.828 53.5585 204.355 53.5585C204.031 53.5585 203.741 53.6272 203.484 53.7646C203.231 53.9021 203.031 54.1036 202.884 54.3693C202.741 54.632 202.669 54.9496 202.669 55.3222ZM211.894 59.642C211.234 59.642 210.659 59.4908 210.167 59.1885C209.675 58.8862 209.294 58.4632 209.022 57.9196C208.75 57.376 208.614 56.7407 208.614 56.0139C208.614 55.284 208.75 54.6457 209.022 54.099C209.294 53.5524 209.675 53.1279 210.167 52.8255C210.659 52.5232 211.234 52.372 211.894 52.372C212.554 52.372 213.129 52.5232 213.621 52.8255C214.113 53.1279 214.495 53.5524 214.766 54.099C215.038 54.6457 215.174 55.284 215.174 56.0139C215.174 56.7407 215.038 57.376 214.766 57.9196C214.495 58.4632 214.113 58.8862 213.621 59.1885C213.129 59.4908 212.554 59.642 211.894 59.642ZM211.899 58.4922C212.326 58.4922 212.68 58.3792 212.961 58.1532C213.242 57.9272 213.45 57.6264 213.584 57.2507C213.722 56.8751 213.791 56.4613 213.791 56.0093C213.791 55.5604 213.722 55.1481 213.584 54.7724C213.45 54.3938 213.242 54.0899 212.961 53.8608C212.68 53.6318 212.326 53.5173 211.899 53.5173C211.468 53.5173 211.111 53.6318 210.827 53.8608C210.546 54.0899 210.337 54.3938 210.199 54.7724C210.065 55.1481 209.998 55.5604 209.998 56.0093C209.998 56.4613 210.065 56.8751 210.199 57.2507C210.337 57.6264 210.546 57.9272 210.827 58.1532C211.111 58.3792 211.468 58.4922 211.899 58.4922ZM219.538 59.642C218.878 59.642 218.302 59.4908 217.811 59.1885C217.319 58.8862 216.937 58.4632 216.666 57.9196C216.394 57.376 216.258 56.7407 216.258 56.0139C216.258 55.284 216.394 54.6457 216.666 54.099C216.937 53.5524 217.319 53.1279 217.811 52.8255C218.302 52.5232 218.878 52.372 219.538 52.372C220.197 52.372 220.773 52.5232 221.265 52.8255C221.757 53.1279 222.138 53.5524 222.41 54.099C222.682 54.6457 222.818 55.284 222.818 56.0139C222.818 56.7407 222.682 57.376 222.41 57.9196C222.138 58.4632 221.757 58.8862 221.265 59.1885C220.773 59.4908 220.197 59.642 219.538 59.642ZM219.542 58.4922C219.97 58.4922 220.324 58.3792 220.605 58.1532C220.886 57.9272 221.094 57.6264 221.228 57.2507C221.366 56.8751 221.434 56.4613 221.434 56.0093C221.434 55.5604 221.366 55.1481 221.228 54.7724C221.094 54.3938 220.886 54.0899 220.605 53.8608C220.324 53.6318 219.97 53.5173 219.542 53.5173C219.112 53.5173 218.754 53.6318 218.47 53.8608C218.189 54.0899 217.98 54.3938 217.843 54.7724C217.708 55.1481 217.641 55.5604 217.641 56.0093C217.641 56.4613 217.708 56.8751 217.843 57.2507C217.98 57.6264 218.189 57.9272 218.47 58.1532C218.754 58.3792 219.112 58.4922 219.542 58.4922ZM229.49 54.1815L228.249 54.4014C228.197 54.2426 228.115 54.0914 228.002 53.9479C227.892 53.8043 227.742 53.6868 227.553 53.5951C227.363 53.5035 227.127 53.4577 226.843 53.4577C226.455 53.4577 226.131 53.5447 225.871 53.7188C225.612 53.8898 225.482 54.1113 225.482 54.3831C225.482 54.6182 225.569 54.8076 225.743 54.9511C225.917 55.0946 226.198 55.2122 226.586 55.3038L227.704 55.5604C228.351 55.71 228.834 55.9406 229.151 56.2521C229.469 56.5636 229.628 56.9683 229.628 57.4661C229.628 57.8875 229.506 58.2631 229.261 58.593C229.02 58.9197 228.683 59.1763 228.249 59.3626C227.818 59.5489 227.319 59.642 226.751 59.642C225.963 59.642 225.32 59.474 224.822 59.1381C224.325 58.7991 224.019 58.3181 223.906 57.6951L225.23 57.4935C225.313 57.8386 225.482 58.0998 225.739 58.2769C225.995 58.451 226.33 58.538 226.742 58.538C227.191 58.538 227.55 58.4449 227.818 58.2586C228.087 58.0692 228.221 57.8386 228.221 57.5668C228.221 57.3469 228.139 57.1622 227.974 57.0125C227.812 56.8629 227.563 56.7499 227.227 56.6735L226.036 56.4124C225.38 56.2628 224.894 56.0246 224.58 55.6978C224.268 55.371 224.112 54.9572 224.112 54.4564C224.112 54.041 224.228 53.6776 224.46 53.3661C224.693 53.0546 225.013 52.8118 225.422 52.6377C225.832 52.4606 226.301 52.372 226.829 52.372C227.589 52.372 228.188 52.5369 228.625 52.8668C229.061 53.1935 229.35 53.6318 229.49 54.1815ZM234.037 59.642C233.344 59.642 232.747 59.4939 232.246 59.1977C231.748 58.8984 231.364 58.4784 231.092 57.9379C230.823 57.3943 230.689 56.7575 230.689 56.0276C230.689 55.3069 230.823 54.6717 231.092 54.1219C231.364 53.5722 231.742 53.1431 232.228 52.8347C232.717 52.5262 233.288 52.372 233.941 52.372C234.338 52.372 234.723 52.4377 235.096 52.569C235.468 52.7003 235.803 52.9065 236.099 53.1874C236.395 53.4684 236.629 53.8333 236.8 54.2823C236.971 54.7282 237.056 55.2702 237.056 55.9085V56.3941H231.463V55.368H235.714C235.714 55.0076 235.641 54.6885 235.494 54.4105C235.348 54.1296 235.141 53.9082 234.876 53.7463C234.613 53.5844 234.305 53.5035 233.95 53.5035C233.566 53.5035 233.23 53.5982 232.943 53.7875C232.659 53.9738 232.439 54.2181 232.283 54.5205C232.13 54.8198 232.054 55.145 232.054 55.4962V56.2979C232.054 56.7682 232.136 57.1683 232.301 57.4981C232.469 57.8279 232.703 58.0799 233.002 58.254C233.301 58.425 233.651 58.5105 234.051 58.5105C234.311 58.5105 234.547 58.4739 234.761 58.4006C234.975 58.3242 235.16 58.2112 235.316 58.0616C235.471 57.9119 235.59 57.7272 235.673 57.5073L236.969 57.7409C236.865 58.1227 236.679 58.4571 236.41 58.7441C236.145 59.0282 235.81 59.2496 235.407 59.4084C235.007 59.5641 234.55 59.642 234.037 59.642ZM241.842 59.5V50.1182H247.66V51.3367H243.257V54.1952H247.243V55.4092H243.257V59.5H241.842ZM249.162 59.5V52.4636H250.531V59.5H249.162ZM249.853 51.3779C249.615 51.3779 249.41 51.2985 249.239 51.1397C249.071 50.9779 248.987 50.7855 248.987 50.5625C248.987 50.3365 249.071 50.1441 249.239 49.9853C249.41 49.8235 249.615 49.7425 249.853 49.7425C250.091 49.7425 250.295 49.8235 250.463 49.9853C250.634 50.1441 250.719 50.3365 250.719 50.5625C250.719 50.7855 250.634 50.9779 250.463 51.1397C250.295 51.2985 250.091 51.3779 249.853 51.3779ZM253.615 50.1182V59.5H252.245V50.1182H253.615ZM258.361 59.642C257.668 59.642 257.071 59.4939 256.57 59.1977C256.072 58.8984 255.687 58.4784 255.415 57.9379C255.147 57.3943 255.012 56.7575 255.012 56.0276C255.012 55.3069 255.147 54.6717 255.415 54.1219C255.687 53.5722 256.066 53.1431 256.551 52.8347C257.04 52.5262 257.611 52.372 258.265 52.372C258.662 52.372 259.047 52.4377 259.419 52.569C259.792 52.7003 260.126 52.9065 260.422 53.1874C260.719 53.4684 260.952 53.8333 261.123 54.2823C261.294 54.7282 261.38 55.2702 261.38 55.9085V56.3941H255.786V55.368H260.038C260.038 55.0076 259.964 54.6885 259.818 54.4105C259.671 54.1296 259.465 53.9082 259.199 53.7463C258.937 53.5844 258.628 53.5035 258.274 53.5035C257.889 53.5035 257.553 53.5982 257.266 53.7875C256.982 53.9738 256.762 54.2181 256.606 54.5205C256.454 54.8198 256.377 55.145 256.377 55.4962V56.2979C256.377 56.7682 256.46 57.1683 256.625 57.4981C256.793 57.8279 257.026 58.0799 257.326 58.254C257.625 58.425 257.975 58.5105 258.375 58.5105C258.634 58.5105 258.871 58.4739 259.085 58.4006C259.299 58.3242 259.483 58.2112 259.639 58.0616C259.795 57.9119 259.914 57.7272 259.996 57.5073L261.293 57.7409C261.189 58.1227 261.003 58.4571 260.734 58.7441C260.468 59.0282 260.134 59.2496 259.731 59.4084C259.331 59.5641 258.874 59.642 258.361 59.642Z" fill="white"/>
</svg>
