<svg width="24" height="18" viewBox="0 0 24 18" fill="none" xmlns="http://www.w3.org/2000/svg">
<path fill-rule="evenodd" clip-rule="evenodd" d="M2.09222 0.813961C1.56914 0.914039 0.880219 1.34594 0.550922 1.78024C0.323344 2.08038 0.115688 2.54182 0.0511875 2.89071C0.0230625 3.04305 0 3.52095 0 3.95262C0 4.60371 0.0125625 4.7501 0.0736406 4.81123C0.14025 4.87779 1.28733 4.88487 12 4.88487C22.7127 4.88487 23.8597 4.87779 23.9264 4.81123C23.9874 4.7501 24 4.60371 24 3.95262C24 3.00345 23.9544 2.72534 23.7185 2.23352C23.3745 1.5168 22.6359 0.947883 21.8703 0.809976C21.5135 0.745711 2.42892 0.749554 2.09222 0.813961ZM0.0736406 6.45851C0.00778125 6.52437 0 6.97287 0 10.6921C0 13.4393 0.0170156 14.9465 0.0501094 15.1301C0.207938 16.0064 0.892875 16.7863 1.80788 17.1315L2.08594 17.2364H11.9766C21.5191 17.2364 21.8763 17.2333 22.125 17.1487C22.8613 16.898 23.4101 16.4288 23.7185 15.7862C23.8182 15.5784 23.9223 15.2831 23.9499 15.1301C23.983 14.9465 24 13.4393 24 10.6921C24 6.97287 23.9922 6.52437 23.9264 6.45851C23.8597 6.39195 22.7127 6.38487 12 6.38487C1.28733 6.38487 0.14025 6.39195 0.0736406 6.45851ZM5.65402 11.38C5.95341 11.6038 5.97656 11.676 5.97656 12.3849C5.97656 12.9676 5.96663 13.0475 5.87991 13.1637C5.65627 13.4632 5.58398 13.4864 4.875 13.4864C4.29225 13.4864 4.21233 13.4765 4.09617 13.3898C3.81488 13.1798 3.77475 13.0763 3.75745 12.5172C3.73791 11.885 3.76495 11.7269 3.92531 11.5363C4.12898 11.2943 4.26525 11.2584 4.93036 11.2715C5.4465 11.2818 5.54175 11.296 5.65402 11.38Z" fill="white"/>
</svg>
