<svg width="14" height="14" viewBox="0 0 14 14" fill="none" xmlns="http://www.w3.org/2000/svg">
<path fill-rule="evenodd" clip-rule="evenodd" d="M5.32206 0.856656L5.23438 0.932063L5.22594 3.07541L5.21747 5.21875H4.25359C3.31719 5.21875 3.28725 5.22066 3.205 5.28534C3.09047 5.37544 3.0525 5.48434 3.09288 5.60672C3.11466 5.67275 3.73153 6.31031 4.99337 7.57097L6.86159 9.4375H7H7.13841L9.00663 7.57097C10.2685 6.31031 10.8853 5.67275 10.9071 5.60672C10.9475 5.48434 10.9095 5.37544 10.795 5.28534C10.7128 5.22066 10.6828 5.21875 9.74578 5.21875H8.78125V3.12344C8.78125 0.878219 8.7825 0.896781 8.62672 0.813437C8.58778 0.792562 8.011 0.78125 6.98819 0.78125H5.40975L5.32206 0.856656ZM0.952375 9.69987C0.7815 9.77431 0.78125 9.77678 0.78125 11.4726V13.0361L0.872594 13.1274L0.963938 13.2188H7H13.0361L13.1274 13.1274L13.2188 13.0361V11.4696C13.2188 9.74278 13.2204 9.75813 13.0275 9.69088C12.906 9.64853 9.97903 9.642 9.86894 9.68388C9.829 9.69903 9.541 9.95216 9.22897 10.2464L8.66159 10.7812H7.00066H5.33969L4.77212 10.2465C4.45994 9.95244 4.17166 9.69931 4.1315 9.68403C4.09131 9.66875 3.38084 9.65681 2.55266 9.65747C1.37762 9.65844 1.02613 9.66775 0.952375 9.69987Z" fill="white"/>
</svg>
